<svg version="1.1" xmlns="http://www.w3.org/2000/svg" viewBox="0 0 539.484375 461.8203125" width="539.484375" height="461.8203125">
  <!-- svg-source:excalidraw -->
  
  <defs>
    <style class="style-fonts">
      @font-face {
        font-family: "Virgil";
        src: url("https://excalidraw.com/Virgil.woff2");
      }
      @font-face {
        font-family: "Cascadia";
        src: url("https://excalidraw.com/Cascadia.woff2");
      }
    </style>
  </defs>
  <rect x="0" y="0" width="539.484375" height="461.8203125" fill="#ffffff"/><g stroke-linecap="round" transform="translate(10 10) rotate(0 259.7421875 220.91015625)"><path d="M32 0 M32 0 C210.52 -0.32, 387.47 -1.66, 487.48 0 M32 0 C185.98 -1.61, 340.42 -1.87, 487.48 0 M487.48 0 C507.68 -1.71, 518.01 10.84, 519.48 32 M487.48 0 C507.83 -0.33, 520.48 8.66, 519.48 32 M519.48 32 C519.54 159.06, 519.15 288.28, 519.48 409.82 M519.48 32 C519.92 168.69, 520.26 306.26, 519.48 409.82 M519.48 409.82 C519.45 431.66, 507.67 441.22, 487.48 441.82 M519.48 409.82 C519.38 430.46, 508 442.12, 487.48 441.82 M487.48 441.82 C368.12 441.4, 247.05 441.83, 32 441.82 M487.48 441.82 C360.14 442.35, 232.31 442.16, 32 441.82 M32 441.82 C9.13 442.79, -1.75 432.41, 0 409.82 M32 441.82 C12.71 441.69, -1.28 432.63, 0 409.82 M0 409.82 C-1.21 318.5, -1.83 228.61, 0 32 M0 409.82 C0.69 307.26, 0.86 205.82, 0 32 M0 32 C-0.67 8.9, 12.16 -0.13, 32 0 M0 32 C0.61 10.27, 12.65 1.06, 32 0" stroke="#000000" stroke-width="1" fill="none"/></g></svg>