<svg width="100" height="100" viewBox="0 0 100 100" fill="none" xmlns="http://www.w3.org/2000/svg">
<path d="M19.5521 77.1275L0.95694 63.177L8.05967 40.6047L31.0446 40.6047L38.1473 63.177L19.5521 77.1275Z" fill="#659DE6"/>
<path d="M31.1474 40.3786L12.5523 26.4281L19.655 3.85583L42.6399 3.85583L49.7426 26.4281L31.1474 40.3786Z" fill="#659DE6"/>
<path d="M68.8603 40.3786L50.2651 26.4281L57.3678 3.85583L80.3527 3.85583L87.4555 26.4281L68.8603 40.3786Z" fill="#659DE6"/>
<path d="M80.4527 77.1275L61.8575 63.177L68.9602 40.6047L91.9451 40.6047L99.0478 63.177L80.4527 77.1275Z" fill="#659DE6"/>
<path d="M50.0019 99.9998L31.4067 86.0493L38.5095 63.477L61.4944 63.477L68.5971 86.0493L50.0019 99.9998Z" fill="#659DE6"/>
</svg>
