<svg width="16px" height="16px" viewBox="0 0 155 33" fill="none" xmlns="http://www.w3.org/2000/svg"><path d="M6.62138 25.4522L0.324071 20.8486L2.72943 13.3997L10.5133 13.3997L12.9187 20.8486L6.62138 25.4522Z" fill="#659DE6"></path><path d="M10.5482 13.325L4.25086 8.72132L6.65622 1.27244L14.4401 1.27244L16.8455 8.72132L10.5482 13.325Z" fill="#659DE6"></path><path d="M23.3197 13.325L17.0224 8.72132L19.4278 1.27244L27.2117 1.27244L29.617 8.72132L23.3197 13.325Z" fill="#659DE6"></path><path d="M27.2455 25.4522L20.9482 20.8486L23.3536 13.3997L31.1375 13.3997L33.5428 20.8486L27.2455 25.4522Z" fill="#659DE6"></path><path d="M16.9333 33L10.636 28.3963L13.0413 20.9475L20.8253 20.9475L23.2306 28.3963L16.9333 33Z" fill="#659DE6"></path><path d="M45.256 25.263C44.332 25.263 43.52 25.109 42.82 24.801C42.12 24.493 41.574 24.045 41.182 23.457C40.79 22.869 40.594 22.141 40.594 21.273C40.594 20.993 40.629 20.699 40.699 20.391C40.783 20.083 40.909 19.782 41.077 19.488L43.177 19.005C43.037 19.313 42.932 19.593 42.862 19.845C42.792 20.097 42.757 20.328 42.757 20.538C42.757 21.084 42.869 21.504 43.093 21.798C43.317 22.106 43.618 22.316 43.996 22.428C44.374 22.554 44.801 22.617 45.277 22.617C45.879 22.617 46.383 22.554 46.789 22.428C47.209 22.302 47.552 22.127 47.818 21.903L48.364 24.402C48 24.682 47.531 24.892 46.957 25.032C46.383 25.186 45.816 25.263 45.256 25.263ZM41.749 6.93005C43.149 6.93005 44.353 7.21705 45.361 7.79105C46.383 8.35105 47.167 9.16305 47.713 10.227C48.259 11.291 48.532 12.572 48.532 14.07C48.532 15.568 48.259 16.849 47.713 17.913C47.167 18.977 46.383 19.796 45.361 20.37C44.353 20.93 43.149 21.21 41.749 21.21C40.349 21.21 39.138 20.93 38.116 20.37C37.094 19.796 36.31 18.977 35.764 17.913C35.218 16.849 34.945 15.568 34.945 14.07C34.945 12.572 35.218 11.291 35.764 10.227C36.31 9.16305 37.094 8.35105 38.116 7.79105C39.138 7.21705 40.349 6.93005 41.749 6.93005ZM41.749 9.76505C41.077 9.76505 40.51 9.92605 40.048 10.248C39.586 10.57 39.236 11.053 38.998 11.697C38.76 12.327 38.641 13.118 38.641 14.07C38.641 15.008 38.76 15.799 38.998 16.443C39.236 17.087 39.586 17.57 40.048 17.892C40.51 18.214 41.077 18.375 41.749 18.375C42.421 18.375 42.981 18.214 43.429 17.892C43.891 17.57 44.241 17.087 44.479 16.443C44.717 15.799 44.836 15.008 44.836 14.07C44.836 13.118 44.717 12.327 44.479 11.697C44.241 11.053 43.891 10.57 43.429 10.248C42.981 9.92605 42.421 9.76505 41.749 9.76505ZM54.3134 21.21C53.5994 21.21 52.9694 21.091 52.4234 20.853C51.8914 20.601 51.4714 20.202 51.1634 19.656C50.8554 19.11 50.7014 18.396 50.7014 17.514V10.5H54.2714V16.674C54.2714 17.346 54.4044 17.815 54.6704 18.081C54.9364 18.347 55.3144 18.48 55.8044 18.48C56.0564 18.48 56.2944 18.438 56.5184 18.354C56.7424 18.256 56.9384 18.116 57.1064 17.934C57.2744 17.738 57.4004 17.493 57.4844 17.199C57.5824 16.891 57.6314 16.534 57.6314 16.128V10.5H61.2014V21H58.0094L57.9044 19.026C57.5684 19.768 57.0994 20.321 56.4974 20.685C55.8954 21.035 55.1674 21.21 54.3134 21.21ZM65.5514 9.28205C64.8234 9.28205 64.2914 9.14905 63.9554 8.88305C63.6334 8.60305 63.4724 8.16905 63.4724 7.58104C63.4724 6.97904 63.6334 6.54504 63.9554 6.27905C64.2914 5.99905 64.8234 5.85905 65.5514 5.85905C66.2654 5.85905 66.7904 5.99905 67.1264 6.27905C67.4624 6.54504 67.6304 6.97904 67.6304 7.58104C67.6304 8.16905 67.4624 8.60305 67.1264 8.88305C66.7904 9.14905 66.2654 9.28205 65.5514 9.28205ZM67.3364 10.5V21H63.7664V10.5H67.3364ZM69.8777 21V10.5H73.0697L73.2587 14.112L72.8597 13.713C72.9997 12.957 73.2447 12.327 73.5947 11.823C73.9587 11.319 74.4067 10.941 74.9387 10.689C75.4847 10.423 76.0937 10.29 76.7657 10.29C77.4937 10.29 78.1237 10.43 78.6557 10.71C79.2017 10.99 79.6287 11.403 79.9367 11.949C80.2447 12.495 80.3987 13.181 80.3987 14.007V21H76.8287V14.952C76.8287 14.224 76.6887 13.72 76.4087 13.44C76.1287 13.16 75.7717 13.02 75.3377 13.02C75.0017 13.02 74.6867 13.104 74.3927 13.272C74.0987 13.426 73.8677 13.678 73.6997 14.028C73.5317 14.378 73.4477 14.847 73.4477 15.435V21H69.8777ZM87.2276 7.16104V17.262C87.2276 17.766 87.3466 18.13 87.5846 18.354C87.8366 18.564 88.1796 18.669 88.6136 18.669C88.9496 18.669 89.2366 18.634 89.4746 18.564C89.7266 18.48 89.9506 18.361 90.1466 18.207L90.5246 20.412C90.1746 20.664 89.7336 20.86 89.2016 21C88.6696 21.14 88.1236 21.21 87.5636 21.21C86.7656 21.21 86.0726 21.098 85.4846 20.874C84.9106 20.65 84.4626 20.293 84.1406 19.803C83.8326 19.313 83.6716 18.662 83.6576 17.85V8.14804L87.2276 7.16104ZM90.3566 10.5V13.041H81.8516V10.5H90.3566ZM97.6756 6.93005C98.9636 6.93005 100.098 7.13305 101.078 7.53905C102.072 7.93105 102.933 8.51205 103.661 9.28205L101.918 11.613C101.316 10.983 100.665 10.514 99.9646 10.206C99.2786 9.88405 98.4946 9.72305 97.6126 9.72305C97.0946 9.72305 96.6746 9.77905 96.3526 9.89104C96.0306 10.003 95.7996 10.157 95.6596 10.353C95.5196 10.549 95.4496 10.773 95.4496 11.025C95.4496 11.319 95.5826 11.571 95.8486 11.781C96.1286 11.977 96.5766 12.145 97.1926 12.285L99.5236 12.81C100.91 13.132 101.925 13.601 102.569 14.217C103.213 14.833 103.535 15.652 103.535 16.674C103.535 17.654 103.283 18.487 102.779 19.173C102.275 19.845 101.582 20.356 100.7 20.706C99.8176 21.042 98.8096 21.21 97.6756 21.21C96.7516 21.21 95.8696 21.112 95.0296 20.916C94.1896 20.706 93.4336 20.412 92.7616 20.034C92.0896 19.656 91.5226 19.222 91.0606 18.732L92.8036 16.317C93.1536 16.723 93.5806 17.087 94.0846 17.409C94.6026 17.717 95.1626 17.962 95.7646 18.144C96.3806 18.326 97.0036 18.417 97.6336 18.417C98.1236 18.417 98.5296 18.368 98.8516 18.27C99.1876 18.172 99.4326 18.025 99.5866 17.829C99.7406 17.633 99.8176 17.402 99.8176 17.136C99.8176 16.842 99.7126 16.597 99.5026 16.401C99.2926 16.191 98.8936 16.016 98.3056 15.876L95.7436 15.309C94.9596 15.127 94.2596 14.889 93.6436 14.595C93.0416 14.287 92.5656 13.881 92.2156 13.377C91.8656 12.859 91.6906 12.215 91.6906 11.445C91.6906 10.577 91.9286 9.80705 92.4046 9.13505C92.8806 8.44905 93.5666 7.91005 94.4626 7.51805C95.3586 7.12605 96.4296 6.93005 97.6756 6.93005ZM105.5 21V10.5H108.692L108.797 12.537C109.133 11.795 109.602 11.235 110.204 10.857C110.82 10.479 111.527 10.29 112.325 10.29C113.109 10.29 113.788 10.465 114.362 10.815C114.936 11.165 115.363 11.683 115.643 12.369C115.867 11.907 116.154 11.522 116.504 11.214C116.868 10.906 117.281 10.675 117.743 10.521C118.205 10.367 118.681 10.29 119.171 10.29C119.871 10.29 120.487 10.43 121.019 10.71C121.551 10.976 121.971 11.389 122.279 11.949C122.601 12.495 122.762 13.181 122.762 14.007V21H119.192V14.826C119.192 14.154 119.059 13.685 118.793 13.419C118.541 13.153 118.198 13.02 117.764 13.02C117.414 13.02 117.092 13.111 116.798 13.293C116.518 13.461 116.301 13.72 116.147 14.07C115.993 14.42 115.916 14.861 115.916 15.393V21H112.346V14.826C112.346 14.154 112.213 13.685 111.947 13.419C111.681 13.153 111.338 13.02 110.918 13.02C110.596 13.02 110.288 13.104 109.994 13.272C109.714 13.44 109.49 13.706 109.322 14.07C109.154 14.42 109.07 14.882 109.07 15.456V21H105.5ZM131.128 14.343C131.128 13.853 130.988 13.468 130.708 13.188C130.442 12.894 130.078 12.747 129.616 12.747C129.154 12.747 128.755 12.866 128.419 13.104C128.097 13.328 127.873 13.734 127.747 14.322L124.723 13.608C124.919 12.6 125.437 11.795 126.277 11.193C127.117 10.591 128.3 10.29 129.826 10.29C130.848 10.29 131.716 10.444 132.43 10.752C133.158 11.046 133.711 11.494 134.089 12.096C134.481 12.684 134.677 13.412 134.677 14.28V18.123C134.677 18.669 134.922 18.942 135.412 18.942C135.664 18.942 135.867 18.914 136.021 18.858L135.811 20.895C135.391 21.091 134.88 21.189 134.278 21.189C133.732 21.189 133.249 21.105 132.829 20.937C132.409 20.755 132.08 20.489 131.842 20.139C131.604 19.775 131.485 19.32 131.485 18.774V18.648L131.884 18.501C131.884 19.103 131.702 19.607 131.338 20.013C130.988 20.419 130.526 20.72 129.952 20.916C129.392 21.112 128.804 21.21 128.188 21.21C127.474 21.21 126.851 21.098 126.319 20.874C125.787 20.65 125.374 20.328 125.08 19.908C124.8 19.474 124.66 18.942 124.66 18.312C124.66 17.556 124.884 16.933 125.332 16.443C125.794 15.939 126.515 15.589 127.495 15.393L131.464 14.574L131.443 16.464L129.427 16.884C129.007 16.968 128.692 17.094 128.482 17.262C128.286 17.416 128.188 17.654 128.188 17.976C128.188 18.284 128.3 18.515 128.524 18.669C128.748 18.823 129.014 18.9 129.322 18.9C129.56 18.9 129.784 18.865 129.994 18.795C130.218 18.725 130.414 18.62 130.582 18.48C130.75 18.326 130.883 18.137 130.981 17.913C131.079 17.689 131.128 17.423 131.128 17.115V14.343ZM137.43 21V10.5H140.58L140.727 12.768C140.993 11.984 141.385 11.375 141.903 10.941C142.435 10.507 143.107 10.29 143.919 10.29C144.185 10.29 144.409 10.311 144.591 10.353C144.787 10.395 144.941 10.451 145.053 10.521L144.696 13.461C144.556 13.405 144.374 13.363 144.15 13.335C143.94 13.293 143.681 13.272 143.373 13.272C142.953 13.272 142.561 13.363 142.197 13.545C141.833 13.727 141.539 14 141.315 14.364C141.105 14.714 141 15.162 141 15.708V21H137.43ZM150.576 7.16104V17.262C150.576 17.766 150.695 18.13 150.933 18.354C151.185 18.564 151.528 18.669 151.962 18.669C152.298 18.669 152.585 18.634 152.823 18.564C153.075 18.48 153.299 18.361 153.495 18.207L153.873 20.412C153.523 20.664 153.082 20.86 152.55 21C152.018 21.14 151.472 21.21 150.912 21.21C150.114 21.21 149.421 21.098 148.833 20.874C148.259 20.65 147.811 20.293 147.489 19.803C147.181 19.313 147.02 18.662 147.006 17.85V8.14804L150.576 7.16104ZM153.705 10.5V13.041H145.2V10.5H153.705Z" fill="#659DE6"></path></svg>